<svg width="161" height="143" viewBox="0 0 161 143" fill="none" xmlns="http://www.w3.org/2000/svg">
<path d="M160.999 71.7266L48.7171 142.68V116.184L48.7198 116.183V112.582L48.7162 112.584V99.6839H68.3656L59.948 105.21V109.087L119.071 71.7266L59.948 34.3659V38.2557L68.3656 43.7822H48.7162V30.8818L48.7198 30.8841V27.2705L48.7171 27.2688V0.773438L160.999 71.7266Z" fill="#1E98E5"/>
<path d="M85.2045 82.4844H93.6246L110.467 71.7341L93.6246 60.9837H48.7118H3.79898V82.4795H0.996094V86.7797H29.0666L37.4781 82.4844H48.7224V86.7797H76.7929L85.2045 82.4844Z" fill="#1E98E5"/>
<path d="M48.7224 56.6798H76.7929L85.2141 60.9799H48.7224V56.6798Z" fill="#1E98E5"/>
<path d="M29.0666 56.6798H0.996094V60.9799H37.4877L29.0666 56.6798Z" fill="#1E98E5"/>
</svg>
